inDegrees=no
num_controls=7
num_derivatives=13
num_iterations=177
num_multipliers=7
num_parameters=0
num_slacks=7
num_states=26
objective=5.974630
objective_accelerations=0.733655
objective_balance=0.137928
objective_effort=0.457750
objective_height=4.558732
objective_ligament=0.086564
solver_duration=2029.706655
status=Solve_Succeeded
success=true
DataType=double
version=3
OpenSimVersion=4.4-2022-07-23-0e9fedc
endheader
time	/jointset/ground_pelvis/pelvis_tilt/value	/jointset/ground_pelvis/pelvis_tx/value	/jointset/ground_pelvis/pelvis_ty/value	/jointset/hip_l/hip_flexion_l/value	/jointset/hip_l/hip_adduction_l/value	/jointset/hip_l/hip_rotation_l/value	/jointset/back/lumbar_extension/value	/jointset/patellofemoral_l/patellar_flexion_l/value	/jointset/knee_l/knee_flexion_l/value	/jointset/knee_l/knee_adduction_l/value	/jointset/knee_l/knee_rotation_l/value	/jointset/ankle_l/ankle_angle_l/value	/jointset/subtalar_l/subtalar_angle_l/value	/jointset/ground_pelvis/pelvis_tilt/speed	/jointset/ground_pelvis/pelvis_tx/speed	/jointset/ground_pelvis/pelvis_ty/speed	/jointset/hip_l/hip_flexion_l/speed	/jointset/hip_l/hip_adduction_l/speed	/jointset/hip_l/hip_rotation_l/speed	/jointset/back/lumbar_extension/speed	/jointset/patellofemoral_l/patellar_flexion_l/speed	/jointset/knee_l/knee_flexion_l/speed	/jointset/knee_l/knee_adduction_l/speed	/jointset/knee_l/knee_rotation_l/speed	/jointset/ankle_l/ankle_angle_l/speed	/jointset/subtalar_l/subtalar_angle_l/speed	/forceset/tau_hip_flexion_l	/forceset/tau_hip_adduction_l	/forceset/tau_hip_rotation_l	/forceset/tau_knee_flexion_l	/forceset/tau_ankle_angle_l	/forceset/tau_subtalar_angle_l	/forceset/tau_lumbar_extension	lambda_cid13_p0	lambda_cid13_p1	lambda_cid13_p2	lambda_cid13_p3	lambda_cid13_p4	lambda_cid13_p5	lambda_cid14_p0	/jointset/ground_pelvis/pelvis_tilt/accel	/jointset/ground_pelvis/pelvis_tx/accel	/jointset/ground_pelvis/pelvis_ty/accel	/jointset/hip_l/hip_flexion_l/accel	/jointset/hip_l/hip_adduction_l/accel	/jointset/hip_l/hip_rotation_l/accel	/jointset/back/lumbar_extension/accel	/jointset/patellofemoral_l/patellar_flexion_l/accel	/jointset/knee_l/knee_flexion_l/accel	/jointset/knee_l/knee_adduction_l/accel	/jointset/knee_l/knee_rotation_l/accel	/jointset/ankle_l/ankle_angle_l/accel	/jointset/subtalar_l/subtalar_angle_l/accel	gamma_cid13_p0	gamma_cid13_p1	gamma_cid13_p2	gamma_cid13_p3	gamma_cid13_p4	gamma_cid13_p5	gamma_cid14_p0
0	-0.1601681667900323	0.0585749074099576	0.8979987673745725	0.3774920279260975	-0.2591367386981308	-0.2729749822914706	-0.0126506700172305	0.03223623128434087	0.03223623128433527	-0.1745329224218566	0.174531704206557	-0.04231376238535053	-0.009261112344823847	0	0	0	0	0	0	0	0	0	0	0	0	0	0.1750245487152317	-0.1047747991452611	-0.05847981110116993	-0.3538162608406607	0.3848474157581862	-0.04804854844512385	-0.1104710224342882	81.58873067547448	0.9116430674226904	5.929024793488847	-27.07705338660612	-588.7351394297183	-80.3061783828467	-39.07469482180053	-4.450107207758331	-1.834403132645336	-1.141910328315964	12.91100498354211	-1.352249548621798	3.504243767855974	-5.860543577336017	10.17349945440819	10.173499454407	0.2053697900832544	0.04982359817710532	1.886939769544272	-0.947480177248187	-4.572802323828816e-08	1.108754408001114e-07	1.084283340163916e-07	1.034809565858727e-08	4.951256467202786e-08	-3.56877815781386e-08	-1.472358727774014e-08
0.01	-0.1603831905833338	0.05848406494566118	0.8979429516145047	0.3781219716646863	-0.2592038612900923	-0.2728002244136943	-0.01294481555404615	0.03273351375910479	0.03273351375911015	-0.1745244990253962	0.1745308542107751	-0.04222295274227993	-0.00930880762336036	-0.04276535896722407	-0.01811720610692932	-0.01112351972803867	0.1254205240715273	-0.01334157267441594	0.03478429534435735	-0.05842585041557129	0.09901201862805817	0.09901201862806155	0.001700043079908268	-0.0001619771225438452	0.01804700094665442	-0.009483763789384385	0.1667521320328191	-0.1125420719905015	-0.05661931978340319	-0.342432076110734	0.3667005661296667	-0.03329678924069137	-0.1040980926364581	76.2840664875484	-4.334820040761207	6.501116563026914	-24.05582475409539	-589.7393578294051	-89.99293307717863	-39.08885224333412	-4.15385005092689	-1.792684267573796	-1.091618049743749	12.27233354515524	-1.312701476242351	3.4404181057853	-5.773117231105824	9.698384563045645	9.698384563047009	0.1546587267898891	-0.04801515900581996	1.746337786986732	-0.9405601566651808	-7.232900779674007e-08	1.382817357057523e-07	1.427794788590317e-07	3.236532461637822e-08	-9.14323239785697e-08	-1.837105110837422e-08	-2.094218576420523e-08
0.02	-0.1610186879282625	0.05821358943672377	0.897777091606217	0.3799890721292047	-0.2594019176786734	-0.2722826444448482	-0.01381112188651126	0.03420758271936068	0.03420758271936064	-0.1744986077659263	0.1745286230854639	-0.04195512158379025	-0.009449687675167229	-0.08409471032330358	-0.03592660892819724	-0.02200884964395108	0.2474313451909533	-0.0261867593244619	0.06856441821109917	-0.114432159128646	0.1953572970977556	0.1953572970977699	0.003493572553614808	-0.0002762259065114624	0.03540430308373141	-0.01863695465403981	0.1584797153502163	-0.120309344835773	-0.05475882846575837	-0.3310478913808854	0.3485537165011102	-0.01854503003629618	-0.097725162838753	71.06642639946743	-9.59739756955973	7.076785985894277	-21.20368019558948	-589.4282253739125	-99.55962054676311	-39.13069572608649	-4.162905685529281	-1.772842475513174	-1.094272365890725	12.22906439312183	-1.252972343747973	3.303409272332769	-5.376635236836571	9.640151422736077	9.640151422736389	0.2240670688425717	0.05936926589246218	1.749000007628598	-0.881365592302604	-9.892999235519197e-08	1.656880306113931e-07	1.771306237016719e-07	5.438255357416918e-08	-2.323772126291673e-07	-1.05432063860983e-09	-2.716078425067032e-08
0.03	-0.1620607632010409	0.05776692215581806	0.8975033130132795	0.3830595712383008	-0.2597258271934796	-0.2714322592933649	-0.01522516755458774	0.03663212347962538	0.0366321234796071	-0.1744544085173116	0.1745255849916411	-0.04151659300499261	-0.009680236589726604	-0.1240921750609881	-0.05331716399221328	-0.03272677663659228	0.3660780098111253	-0.0385090997953858	0.1013523704494471	-0.1679869531559142	0.2891182882117413	0.2891182882117322	0.005334066516930025	-0.0003249753899783628	0.05223662199302929	-0.02740620251098549	0.1510828053125803	-0.1127392289126094	-0.05348905130738443	-0.322854052132973	0.3391452711176279	-0.02093444830344577	-0.0918843212596426	67.97801168817105	-8.182917757451849	7.038608347287008	-19.69050757020199	-589.2346768493126	-95.4806565017482	-39.19879259482882	-3.883951647921057	-1.708698567586048	-1.05758606483186	11.59388245778796	-1.208992240489381	3.242428980401658	-5.286398285740896	9.179193401767279	9.179193401763698	0.1622536887586168	-0.0360548716324028	1.640622766227912	-0.8647557946885467	-1.216972293557438e-07	1.724605361595707e-07	2.145776423432674e-07	7.327395007640597e-08	-3.476473117766634e-07	-2.256018519275266e-09	-3.407079444219343e-08
